<?xml version="1.0" encoding="UTF-8"?>

<svg xmlns="http://www.w3.org/2000/svg" version="1.1"
    xmlns:freecad="http://www.freecadweb.org/wiki/index.php?title=Svg_Namespace"
	width="420mm"
	height="297mm"
	viewBox="0 0 420 297">
	<!-- Working space 0 0 420 297 -->
	<defs>
		<radialGradient
			id="radialGradient3661"
			gradientUnits="userSpaceOnUse"
			cy="29.149"
			cx="282.65"
			gradientTransform="matrix(.14777 .23089 -.24680 .15795 -26.318 -62.617)"
			r="19.571">
				<stop stop-color="#71b2f8" offset="0"/>
				<stop stop-color="#002795" offset="1"/>
		</radialGradient>
		<radialGradient
			id="radialGradient3817"
			gradientUnits="userSpaceOnUse"
			cy="33.9"
			cx="270.58"
			gradientTransform="matrix(.26631 .065024 -.17931 .73438 -60.668 -36.938)"
			r="19.571">
				<stop stop-color="#ff6d0f" offset="0"/>
				<stop stop-color="#ff1000" offset="1"/>
		</radialGradient>
	</defs>
	<!-- Set display:none to hide FreeCAD Logo -->
	<g
		style="display:inline"
		id="freecad-logo"
		transform="translate(386, 264) scale(1.5)"
		fill-rule="evenodd"
		stroke-width=".45621">
		<path d="m0.22811 0.22835v13.256h2.9558v-5.1876h2.09v-2.0452h-2.09v-2.2075h5.1486v-3.8087l-8.1044-0.0075z"
			stroke="#370700"
			fill="url(#radialGradient3817)"/>
		<path d="m13.386 4.1792-1.7193 0.98645-0.75925-0.26348-0.72439-1.8513-1.1395 0.05988-0.51976 1.9144-0.72743 0.34835-1.8143-0.79367-0.76632 0.85156 0.98645 1.7193-0.26957 0.75702-1.8513 0.72439 0.065967 1.1417 1.9144 0.51976 0.34835 0.72743-0.79976 1.8121 0.85156 0.76632 1.7193-0.98645 0.76311 0.27179 0.7183 1.8491 1.1478-0.06375 0.51367-1.9166 0.72743-0.34835 1.8182 0.80198 0.76632-0.85156-0.98645-1.7193 0.2657-0.76533 1.8491-0.7183-0.05766-1.1456-1.9166-0.51367-0.34835-0.72743 0.7959-1.8204-0.85156-0.76632zm-2.5751 2.8195 0.35295 0.20478 0.30579 0.27725 0.24481 0.33087 0.17611 0.36787 0.10354 0.39656 0.01715 0.4064-0.0587 0.4063-0.13396 0.38571-0.2131 0.35681-0.26894 0.30192-0.33087 0.24481-0.36787 0.17611-0.39656 0.10354-0.40863 0.02325-0.4063-0.0587-0.38571-0.13396-0.35681-0.2131-0.2997-0.27503-0.24703-0.32478-0.17611-0.36787-0.10132-0.40264-0.02324-0.40863 0.05869-0.4063 0.13396-0.38571 0.21087-0.35072 0.27116-0.30801 0.33087-0.24481 0.36787-0.17611 0.40264-0.10132 0.40641-0.01715 0.4063 0.05869 0.38571 0.13396z" 
		stroke="#000137"
		fill="url(#radialGradient3661)"/>
	</g>
<g id="Ortho_0_0"
   transform="rotate(-90,85.0365,252.964) translate(85.0365,252.964) scale(0.375,0.375)"
  >
<g   fill="none"
   stroke="rgb(0, 0, 0)"
   stroke-dasharray="0.2,0.1)"
   stroke-linecap="butt"
   stroke-linejoin="miter"
   stroke-width="0.400000"
   transform="scale(1,-1)"
  >
<path id= "1" d=" M -40 5 L -40 15 " />
<path id= "2" d=" M 40 5 L 40 15 " />
<path d="M40 5 A5 5 0 0 0 35 -7.99361e-15" /><path d="M35,-7.7e-15 L34.1225,-7.50694e-15  L31.5339,-6.93746e-15  L27.3641,-6.0201e-15  L21.8221,-4.80087e-15  L15.1859,-3.3409e-15  L7.78823,-1.71341e-15  L-1.15463e-14,2.36658e-30  L-7.78823,1.71341e-15  L-15.1859,3.3409e-15  L-21.8221,4.80087e-15  L-27.3641,6.0201e-15  L-31.5339,6.93746e-15  L-34.1225,7.50694e-15  L-35,7.7e-15 " /><path d="M-40 5 A5 5 0 0 1 -35 7.10543e-15" /><path d="M-5,0 Q-4.98428,0 -4.96856,0  Q-4.9216,0 -4.87464,0  Q-4.79703,0 -4.71942,0  Q-4.61213,0 -4.50484,0  Q-4.36923,0 -4.23362,0  Q-4.07139,0 -3.90916,0  Q-3.72235,0 -3.53553,0  Q-3.32649,0 -3.11745,0  Q-2.8888,0 -2.66016,0  Q-2.41479,0 -2.16942,0  Q-1.91041,0 -1.6514,0  Q-1.382,0 -1.1126,0  Q-0.561797,0 -1.22125e-15,0 " /><path d="M0,0 L0.559822,0  L1.1126,0  L1.6514,0  L2.16942,0  L2.66016,0  L3.11745,0  L3.53553,0  L3.90916,0  L4.23362,0  L4.50484,0  L4.71942,0  L4.87464,0  L4.96856,0  L5,0 " /><path d="M5,0 L4.87464,0  L4.50484,0  L3.90916,0  L3.11745,0  L2.16942,0  L1.1126,0  L2.88658e-15,0  L-1.1126,0  L-2.16942,0  L-3.11745,0  L-3.90916,0  L-4.50484,0  L-4.87464,0  L-5,0 " /><path d="M0,0 L0.559822,0  L1.1126,0  L1.6514,0  L2.16942,0  L2.66016,0  L3.11745,0  L3.53553,0  L3.90916,0  L4.23362,0  L4.50484,0  L4.71942,0  L4.87464,0  L4.96856,0  L5,0 " /><path d="M5,0 L4.87464,0  L4.50484,0  L3.90916,0  L3.11745,0  L2.16942,0  L1.1126,0  L6.66134e-16,0  L-1.1126,0  L-2.16942,0  L-3.11745,0  L-3.90916,0  L-4.50484,0  L-4.87464,0  L-5,0 " /><path d="M-5,0 Q-4.98428,0 -4.96856,0  Q-4.9216,0 -4.87464,0  Q-4.79703,0 -4.71942,0  Q-4.61213,0 -4.50484,0  Q-4.36923,0 -4.23362,0  Q-4.07139,0 -3.90916,0  Q-3.72235,0 -3.53553,0  Q-3.32649,0 -3.11745,0  Q-2.8888,0 -2.66016,0  Q-2.41479,0 -2.16942,0  Q-1.91041,0 -1.6514,0  Q-1.382,0 -1.1126,0  Q-0.561797,0 -1.11022e-15,0 " /><path d="M0,0 L0.559822,0  L1.1126,0  L1.6514,0  L2.16942,0  L2.66016,0  L3.11745,0  L3.53553,0  L3.90916,0  L4.23362,0  L4.50484,0  L4.71942,0  L4.87464,0  L4.96856,0  L5,0 " /><path d="M5,0 L4.87464,0  L4.50484,0  L3.90916,0  L3.11745,0  L2.16942,0  L1.1126,0  L6.66134e-16,0  L-1.1126,0  L-2.16942,0  L-3.11745,0  L-3.90916,0  L-4.50484,0  L-4.87464,0  L-5,0 " /><path d="M-5,0 Q-4.98428,0 -4.96856,0  Q-4.9216,0 -4.87464,0  Q-4.79703,0 -4.71942,0  Q-4.61213,0 -4.50484,0  Q-4.36923,0 -4.23362,0  Q-4.07139,0 -3.90916,0  Q-3.72235,0 -3.53553,0  Q-3.32649,0 -3.11745,0  Q-2.8888,0 -2.66016,0  Q-2.41479,0 -2.16942,0  Q-1.91041,0 -1.6514,0  Q-1.382,0 -1.1126,0  Q-0.561797,0 -1.11022e-15,0 " /><path d="M0,0 L0.559822,0  L1.1126,0  L1.6514,0  L2.16942,0  L2.66016,0  L3.11745,0  L3.53553,0  L3.90916,0  L4.23362,0  L4.50484,0  L4.71942,0  L4.87464,0  L4.96856,0  L5,0 " /><path d="M5,0 L4.87464,0  L4.50484,0  L3.90916,0  L3.11745,0  L2.16942,0  L1.1126,0  L6.66134e-16,0  L-1.1126,0  L-2.16942,0  L-3.11745,0  L-3.90916,0  L-4.50484,0  L-4.87464,0  L-5,0 " /><path d="M-5,0 Q-4.98428,0 -4.96856,0  Q-4.9216,0 -4.87464,0  Q-4.79703,0 -4.71942,0  Q-4.61213,0 -4.50484,0  Q-4.36923,0 -4.23362,0  Q-4.07139,0 -3.90916,0  Q-3.72235,0 -3.53553,0  Q-3.32649,0 -3.11745,0  Q-2.8888,0 -2.66016,0  Q-2.41479,0 -2.16942,0  Q-1.91041,0 -1.6514,0  Q-1.382,0 -1.1126,0  Q-0.561797,0 -1.11022e-15,0 " /><path d="M0,0 L0.559822,0  L1.1126,0  L1.6514,0  L2.16942,0  L2.66016,0  L3.11745,0  L3.53553,0  L3.90916,0  L4.23362,0  L4.50484,0  L4.71942,0  L4.87464,0  L4.96856,0  L5,0 " /><path d="M5,0 L4.87464,0  L4.50484,0  L3.90916,0  L3.11745,0  L2.16942,0  L1.1126,0  L6.66134e-16,0  L-1.1126,0  L-2.16942,0  L-3.11745,0  L-3.90916,0  L-4.50484,0  L-4.87464,0  L-5,0 " /><path d="M-5,0 Q-4.98428,0 -4.96856,0  Q-4.9216,0 -4.87464,0  Q-4.79703,0 -4.71942,0  Q-4.61213,0 -4.50484,0  Q-4.36923,0 -4.23362,0  Q-4.07139,0 -3.90916,0  Q-3.72235,0 -3.53553,0  Q-3.32649,0 -3.11745,0  Q-2.8888,0 -2.66016,0  Q-2.41479,0 -2.16942,0  Q-1.91041,0 -1.6514,0  Q-1.382,0 -1.1126,0  Q-0.561797,0 -1.11022e-15,0 " /><path d="M5,0 L4.87464,0  L4.50484,0  L3.90916,0  L3.11745,0  L2.16942,0  L1.1126,0  L-1.55431e-15,0  L-1.1126,0  L-2.16942,0  L-3.11745,0  L-3.90916,0  L-4.50484,0  L-4.87464,0  L-5,0 " /><path d="M-5,0 Q-4.98428,0 -4.96856,0  Q-4.9216,0 -4.87464,0  Q-4.79703,0 -4.71942,0  Q-4.61213,0 -4.50484,0  Q-4.36923,0 -4.23362,0  Q-4.07139,0 -3.90916,0  Q-3.72235,0 -3.53553,0  Q-3.32649,0 -3.11745,0  Q-2.8888,0 -2.66016,0  Q-2.41479,0 -2.16942,0  Q-1.91041,0 -1.6514,0  Q-1.382,0 -1.1126,0  Q-0.561797,0 -1.11022e-15,0 " /><path d="M0,0 L0.559822,0  L1.1126,0  L1.6514,0  L2.16942,0  L2.66016,0  L3.11745,0  L3.53553,0  L3.90916,0  L4.23362,0  L4.50484,0  L4.71942,0  L4.87464,0  L4.96856,0  L5,0 " /><path d="M40 15 A5 5 0 0 1 35 20" /><path d="M35,20 L34.1225,20  L31.5339,20  L27.3641,20  L21.8221,20  L15.1859,20  L7.78823,20  L-7.10543e-15,20  L-7.78823,20  L-15.1859,20  L-21.8221,20  L-27.3641,20  L-31.5339,20  L-34.1225,20  L-35,20 " /><path d="M-40 15 A5 5 0 0 0 -35 20" /><path d="M-5,20 Q-4.98428,20 -4.96856,20  Q-4.9216,20 -4.87464,20  Q-4.79703,20 -4.71942,20  Q-4.61213,20 -4.50484,20  Q-4.36923,20 -4.23362,20  Q-4.07139,20 -3.90916,20  Q-3.72235,20 -3.53553,20  Q-3.32649,20 -3.11745,20  Q-2.8888,20 -2.66016,20  Q-2.41479,20 -2.16942,20  Q-1.91041,20 -1.6514,20  Q-1.382,20 -1.1126,20  Q-0.561797,20 -1.22125e-15,20 " /><path d="M5,20 L4.87464,20  L4.50484,20  L3.90916,20  L3.11745,20  L2.16942,20  L1.1126,20  L2.88658e-15,20  L-1.1126,20  L-2.16942,20  L-3.11745,20  L-3.90916,20  L-4.50484,20  L-4.87464,20  L-5,20 " /><path d="M0,20 L0.559822,20  L1.1126,20  L1.6514,20  L2.16942,20  L2.66016,20  L3.11745,20  L3.53553,20  L3.90916,20  L4.23362,20  L4.50484,20  L4.71942,20  L4.87464,20  L4.96856,20  L5,20 " /><path d="M0,20 L0.559822,20  L1.1126,20  L1.6514,20  L2.16942,20  L2.66016,20  L3.11745,20  L3.53553,20  L3.90916,20  L4.23362,20  L4.50484,20  L4.71942,20  L4.87464,20  L4.96856,20  L5,20 " /><path d="M5,20 L4.87464,20  L4.50484,20  L3.90916,20  L3.11745,20  L2.16942,20  L1.1126,20  L6.66134e-16,20  L-1.1126,20  L-2.16942,20  L-3.11745,20  L-3.90916,20  L-4.50484,20  L-4.87464,20  L-5,20 " /><path d="M-5,20 Q-4.98428,20 -4.96856,20  Q-4.9216,20 -4.87464,20  Q-4.79703,20 -4.71942,20  Q-4.61213,20 -4.50484,20  Q-4.36923,20 -4.23362,20  Q-4.07139,20 -3.90916,20  Q-3.72235,20 -3.53553,20  Q-3.32649,20 -3.11745,20  Q-2.8888,20 -2.66016,20  Q-2.41479,20 -2.16942,20  Q-1.91041,20 -1.6514,20  Q-1.382,20 -1.1126,20  Q-0.561797,20 -1.11022e-15,20 " /><path d="M0,20 L0.559822,20  L1.1126,20  L1.6514,20  L2.16942,20  L2.66016,20  L3.11745,20  L3.53553,20  L3.90916,20  L4.23362,20  L4.50484,20  L4.71942,20  L4.87464,20  L4.96856,20  L5,20 " /><path d="M5,20 L4.87464,20  L4.50484,20  L3.90916,20  L3.11745,20  L2.16942,20  L1.1126,20  L6.66134e-16,20  L-1.1126,20  L-2.16942,20  L-3.11745,20  L-3.90916,20  L-4.50484,20  L-4.87464,20  L-5,20 " /><path d="M-5,20 Q-4.98428,20 -4.96856,20  Q-4.9216,20 -4.87464,20  Q-4.79703,20 -4.71942,20  Q-4.61213,20 -4.50484,20  Q-4.36923,20 -4.23362,20  Q-4.07139,20 -3.90916,20  Q-3.72235,20 -3.53553,20  Q-3.32649,20 -3.11745,20  Q-2.8888,20 -2.66016,20  Q-2.41479,20 -2.16942,20  Q-1.91041,20 -1.6514,20  Q-1.382,20 -1.1126,20  Q-0.561797,20 -1.11022e-15,20 " /><path d="M0,20 L0.559822,20  L1.1126,20  L1.6514,20  L2.16942,20  L2.66016,20  L3.11745,20  L3.53553,20  L3.90916,20  L4.23362,20  L4.50484,20  L4.71942,20  L4.87464,20  L4.96856,20  L5,20 " /><path d="M5,20 L4.87464,20  L4.50484,20  L3.90916,20  L3.11745,20  L2.16942,20  L1.1126,20  L6.66134e-16,20  L-1.1126,20  L-2.16942,20  L-3.11745,20  L-3.90916,20  L-4.50484,20  L-4.87464,20  L-5,20 " /><path d="M-5,20 Q-4.98428,20 -4.96856,20  Q-4.9216,20 -4.87464,20  Q-4.79703,20 -4.71942,20  Q-4.61213,20 -4.50484,20  Q-4.36923,20 -4.23362,20  Q-4.07139,20 -3.90916,20  Q-3.72235,20 -3.53553,20  Q-3.32649,20 -3.11745,20  Q-2.8888,20 -2.66016,20  Q-2.41479,20 -2.16942,20  Q-1.91041,20 -1.6514,20  Q-1.382,20 -1.1126,20  Q-0.561797,20 -1.11022e-15,20 " /><path d="M0,20 L0.559822,20  L1.1126,20  L1.6514,20  L2.16942,20  L2.66016,20  L3.11745,20  L3.53553,20  L3.90916,20  L4.23362,20  L4.50484,20  L4.71942,20  L4.87464,20  L4.96856,20  L5,20 " /><path d="M5,20 L4.87464,20  L4.50484,20  L3.90916,20  L3.11745,20  L2.16942,20  L1.1126,20  L6.66134e-16,20  L-1.1126,20  L-2.16942,20  L-3.11745,20  L-3.90916,20  L-4.50484,20  L-4.87464,20  L-5,20 " /><path d="M-5,20 Q-4.98428,20 -4.96856,20  Q-4.9216,20 -4.87464,20  Q-4.79703,20 -4.71942,20  Q-4.61213,20 -4.50484,20  Q-4.36923,20 -4.23362,20  Q-4.07139,20 -3.90916,20  Q-3.72235,20 -3.53553,20  Q-3.32649,20 -3.11745,20  Q-2.8888,20 -2.66016,20  Q-2.41479,20 -2.16942,20  Q-1.91041,20 -1.6514,20  Q-1.382,20 -1.1126,20  Q-0.561797,20 -1.11022e-15,20 " /><path d="M5,20 L4.87464,20  L4.50484,20  L3.90916,20  L3.11745,20  L2.16942,20  L1.1126,20  L-1.55431e-15,20  L-1.1126,20  L-2.16942,20  L-3.11745,20  L-3.90916,20  L-4.50484,20  L-4.87464,20  L-5,20 " /><path d="M0,20 L0.559822,20  L1.1126,20  L1.6514,20  L2.16942,20  L2.66016,20  L3.11745,20  L3.53553,20  L3.90916,20  L4.23362,20  L4.50484,20  L4.71942,20  L4.87464,20  L4.96856,20  L5,20 " /><path d="M-5,20 Q-4.98428,20 -4.96856,20  Q-4.9216,20 -4.87464,20  Q-4.79703,20 -4.71942,20  Q-4.61213,20 -4.50484,20  Q-4.36923,20 -4.23362,20  Q-4.07139,20 -3.90916,20  Q-3.72235,20 -3.53553,20  Q-3.32649,20 -3.11745,20  Q-2.8888,20 -2.66016,20  Q-2.41479,20 -2.16942,20  Q-1.91041,20 -1.6514,20  Q-1.382,20 -1.1126,20  Q-0.561797,20 -1.11022e-15,20 " /></g>
<g   fill="none"
   stroke="rgb(0, 0, 0)"
   stroke-dasharray="0.02,0.1)"
   stroke-linecap="butt"
   stroke-linejoin="miter"
   stroke-width="0.400000"
   transform="scale(1,-1)"
  >
<path id= "1" d=" M 5 0 L 5 20 " />
<path id= "2" d=" M -5 0 L -5 20 " />
<path id= "3" d=" M 5 0 L 5 20 " />
<path id= "4" d=" M -5 0 L -5 20 " />
<path id= "5" d=" M 5 0 L 5 20 " />
<path id= "6" d=" M -5 0 L -5 20 " />
<path id= "7" d=" M 5 0 L 5 20 " />
<path id= "8" d=" M -5 0 L -5 20 " />
<path id= "9" d=" M 5 0 L 5 20 " />
<path id= "10" d=" M -5 0 L -5 20 " />
<path id= "11" d=" M 5 0 L 5 20 " />
<path id= "12" d=" M -5 0 L -5 20 " />
</g>
<g   fill="none"
   stroke="rgb(0, 0, 0)"
   stroke-linecap="butt"
   stroke-linejoin="miter"
   stroke-width="0.933333"
   transform="scale(1,-1)"
  >
<path id= "1" d=" M -40 5 L -40 15 " />
<path id= "2" d=" M 40 5 L 40 15 " />
<path d="M-40 5 A5 5 0 0 1 -35 7.10543e-15" /><path d="M-35,7.7e-15 L-34.7799,7.65158e-15  L-34.1225,7.50694e-15  L-33.0359,7.2679e-15  L-31.5339,6.93746e-15  L-29.6353,6.51978e-15  L-27.3641,6.0201e-15  L-24.7487,5.44472e-15  L-21.8221,4.80087e-15  L-18.6211,4.09665e-15  L-15.1859,3.3409e-15  L-11.5598,2.54315e-15  L-7.78823,1.71341e-15  L-3.91876,8.62126e-16  L1.33227e-14,-2.95823e-30 " /><path d="M-40 15 A5 5 0 0 0 -35 20" /><path d="M-35,20 L-34.7799,20  L-34.1225,20  L-33.0359,20  L-31.5339,20  L-29.6353,20  L-27.3641,20  L-24.7487,20  L-21.8221,20  L-18.6211,20  L-15.1859,20  L-11.5598,20  L-7.78823,20  L-3.91876,20  L1.77636e-14,20 " /><path d="M0,0 L3.91876,-8.62126e-16  L7.78823,-1.71341e-15  L11.5598,-2.54315e-15  L15.1859,-3.3409e-15  L18.6211,-4.09665e-15  L21.8221,-4.80087e-15  L24.7487,-5.44472e-15  L27.3641,-6.0201e-15  L29.6353,-6.51978e-15  L31.5339,-6.93746e-15  L33.0359,-7.2679e-15  L34.1225,-7.50694e-15  L34.7799,-7.65158e-15  L35,-7.7e-15 " /><path d="M40 5 A5 5 0 0 0 35 -7.99361e-15" /><path d="M4.44089e-15,20 L3.91876,20  L7.78823,20  L11.5598,20  L15.1859,20  L18.6211,20  L21.8221,20  L24.7487,20  L27.3641,20  L29.6353,20  L31.5339,20  L33.0359,20  L34.1225,20  L34.7799,20  L35,20 " /><path d="M40 15 A5 5 0 0 1 35 20" /></g>
</g>



<g id="Ortho_0_1"
   transform="rotate(90,85.0365,43.9271) translate(85.0365,43.9271) scale(0.375,0.375)"
  >
<g   fill="none"
   stroke="rgb(0, 0, 0)"
   stroke-dasharray="0.2,0.1)"
   stroke-linecap="butt"
   stroke-linejoin="miter"
   stroke-width="0.400000"
   transform="scale(1,-1)"
  >
<path id= "1" d=" M 400 -5 L 400 -15 " />
<path id= "2" d=" M 0 -5 L 0 -15 " />
<path id= "3" d=" M 0 -7.11e-15 L 400 -7.11e-15 " />
<path id= "4" d=" M 0 -20 L 400 -20 " />
<path d="M400,-7.7e-15 L403.919,-7.65158e-15  L407.788,-7.50694e-15  L411.56,-7.2679e-15  L415.186,-6.93746e-15  L418.621,-6.51978e-15  L421.822,-6.0201e-15  L424.749,-5.44472e-15  L427.364,-4.80087e-15  L429.635,-4.09665e-15  L431.534,-3.3409e-15  L433.036,-2.54315e-15  L434.122,-1.71341e-15  L434.78,-8.62126e-16  L435,2.95823e-30 " /><path d="M400,-20 Q402.513,-20 405,-20 " /><path d="M-35,2.9671e-28 L-34.7799,-8.62126e-16  L-34.1225,-1.71341e-15  L-33.0359,-2.54315e-15  L-31.5339,-3.3409e-15  L-29.6353,-4.09665e-15  L-27.3641,-4.80087e-15  L-24.7487,-5.44472e-15  L-21.8221,-6.0201e-15  L-18.6211,-6.51978e-15  L-15.1859,-6.93746e-15  L-11.5598,-7.2679e-15  L-7.78823,-7.50694e-15  L-3.91876,-7.65158e-15  L9.10383e-15,-7.7e-15 " /><path d="M1.68754e-14,0 L0.559822,0  L1.1126,0  L1.6514,0  L2.16942,0  L2.66016,0  L3.11745,0  L3.53553,0  L3.90916,0  L4.23362,0  L4.50484,0  L4.71942,0  L4.87464,0  L4.96856,0  L5,0 " /><path d="M5,0 Q4.98428,0 4.96856,0  Q4.9216,0 4.87464,0  Q4.79703,0 4.71942,0  Q4.61213,0 4.50484,0  Q4.36923,0 4.23362,0  Q4.07139,0 3.90916,0  Q3.72235,0 3.53553,0  Q3.32649,0 3.11745,0  Q2.8888,0 2.66016,0  Q2.41479,0 2.16942,0  Q1.91041,0 1.6514,0  Q1.382,0 1.1126,0  Q0.561797,0 1.80966e-14,0 " /><path d="M1.80966e-14,0 L-0.559822,0  L-1.1126,0  L-1.6514,0  L-2.16942,0  L-2.66016,0  L-3.11745,0  L-3.53553,0  L-3.90916,0  L-4.23362,0  L-4.50484,0  L-4.71942,0  L-4.87464,0  L-4.96856,0  L-5,0 " /><path d="M-5,0 Q-4.98428,0 -4.96856,0  Q-4.9216,0 -4.87464,0  Q-4.79703,0 -4.71942,0  Q-4.61213,0 -4.50484,0  Q-4.36923,0 -4.23362,0  Q-4.07139,0 -3.90916,0  Q-3.72235,0 -3.53553,0  Q-3.32649,0 -3.11745,0  Q-2.8888,0 -2.66016,0  Q-2.41479,0 -2.16942,0  Q-1.91041,0 -1.6514,0  Q-1.382,0 -1.1126,0  Q-0.561797,0 1.68754e-14,0 " /><path d="M85,0 L84.8746,0  L84.5048,0  L83.9092,0  L83.1174,0  L82.1694,0  L81.1126,0  L80,0  L78.8874,0  L77.8306,0  L76.8826,0  L76.0908,0  L75.4952,0  L75.1254,0  L75,0 " /><path d="M75,0 L75.1254,0  L75.4952,0  L76.0908,0  L76.8826,0  L77.8306,0  L78.8874,0  L80,0  L81.1126,0  L82.1694,0  L83.1174,0  L83.9092,0  L84.5048,0  L84.8746,0  L85,0 " /><path d="M165,0 L164.875,0  L164.505,0  L163.909,0  L163.117,0  L162.169,0  L161.113,0  L160,0  L158.887,0  L157.831,0  L156.883,0  L156.091,0  L155.495,0  L155.125,0  L155,0 " /><path d="M155,0 L155.125,0  L155.495,0  L156.091,0  L156.883,0  L157.831,0  L158.887,0  L160,0  L161.113,0  L162.169,0  L163.117,0  L163.909,0  L164.505,0  L164.875,0  L165,0 " /><path d="M325,0 L324.875,0  L324.505,0  L323.909,0  L323.117,0  L322.169,0  L321.113,0  L320,0  L318.887,0  L317.831,0  L316.883,0  L316.091,0  L315.495,0  L315.125,0  L315,0 " /><path d="M315,0 L315.125,0  L315.495,0  L316.091,0  L316.883,0  L317.831,0  L318.887,0  L320,0  L321.113,0  L322.169,0  L323.117,0  L323.909,0  L324.505,0  L324.875,0  L325,0 " /><path d="M245,0 L244.875,0  L244.505,0  L243.909,0  L243.117,0  L242.169,0  L241.113,0  L240,0  L238.887,0  L237.831,0  L236.883,0  L236.091,0  L235.495,0  L235.125,0  L235,0 " /><path d="M235,0 L235.125,0  L235.495,0  L236.091,0  L236.883,0  L237.831,0  L238.887,0  L240,0  L241.113,0  L242.169,0  L243.117,0  L243.909,0  L244.505,0  L244.875,0  L245,0 " /><path d="M400,0 L399.44,0  L398.887,0  L398.349,0  L397.831,0  L397.34,0  L396.883,0  L396.464,0  L396.091,0  L395.766,0  L395.495,0  L395.281,0  L395.125,0  L395.031,0  L395,0 " /><path d="M395,0 Q395.016,0 395.031,0  Q395.078,0 395.125,0  Q395.203,0 395.281,0  Q395.388,0 395.495,0  Q395.631,0 395.766,0  Q395.929,0 396.091,0  Q396.278,0 396.464,0  Q396.674,0 396.883,0  Q397.111,0 397.34,0  Q397.585,0 397.831,0  Q398.09,0 398.349,0  Q398.618,0 398.887,0  Q399.438,0 400,0 " /><path d="M400,0 L400.56,0  L401.113,0  L401.651,0  L402.169,0  L402.66,0  L403.117,0  L403.536,0  L403.909,0  L404.234,0  L404.505,0  L404.719,0  L404.875,0  L404.969,0  L405,0 " /><path d="M405,0 Q404.984,0 404.969,0  Q404.922,0 404.875,0  Q404.797,0 404.719,0  Q404.612,0 404.505,0  Q404.369,0 404.234,0  Q404.071,0 403.909,0  Q403.722,0 403.536,0  Q403.326,0 403.117,0  Q402.889,0 402.66,0  Q402.415,0 402.169,0  Q401.91,0 401.651,0  Q401.382,0 401.113,0  Q400.562,0 400,0 " /><path d="M-35,-20 L-34.7799,-20  L-34.1225,-20  L-33.0359,-20  L-31.5339,-20  L-29.6353,-20  L-27.3641,-20  L-24.7487,-20  L-21.8221,-20  L-18.6211,-20  L-15.1859,-20  L-11.5598,-20  L-7.78823,-20  L-3.91876,-20  L9.10383e-15,-20 " /><path d="M1.68754e-14,-20 L0.559822,-20  L1.1126,-20  L1.6514,-20  L2.16942,-20  L2.66016,-20  L3.11745,-20  L3.53553,-20  L3.90916,-20  L4.23362,-20  L4.50484,-20  L4.71942,-20  L4.87464,-20  L4.96856,-20  L5,-20 " /><path d="M1.80966e-14,-20 L-0.559822,-20  L-1.1126,-20  L-1.6514,-20  L-2.16942,-20  L-2.66016,-20  L-3.11745,-20  L-3.53553,-20  L-3.90916,-20  L-4.23362,-20  L-4.50484,-20  L-4.71942,-20  L-4.87464,-20  L-4.96856,-20  L-5,-20 " /><path d="M-5,-20 Q-4.98428,-20 -4.96856,-20  Q-4.9216,-20 -4.87464,-20  Q-4.79703,-20 -4.71942,-20  Q-4.61213,-20 -4.50484,-20  Q-4.36923,-20 -4.23362,-20  Q-4.07139,-20 -3.90916,-20  Q-3.72235,-20 -3.53553,-20  Q-3.32649,-20 -3.11745,-20  Q-2.8888,-20 -2.66016,-20  Q-2.41479,-20 -2.16942,-20  Q-1.91041,-20 -1.6514,-20  Q-1.382,-20 -1.1126,-20  Q-0.561797,-20 1.68754e-14,-20 " /><path d="M5,-20 Q4.98428,-20 4.96856,-20  Q4.9216,-20 4.87464,-20  Q4.79703,-20 4.71942,-20  Q4.61213,-20 4.50484,-20  Q4.36923,-20 4.23362,-20  Q4.07139,-20 3.90916,-20  Q3.72235,-20 3.53553,-20  Q3.32649,-20 3.11745,-20  Q2.8888,-20 2.66016,-20  Q2.41479,-20 2.16942,-20  Q1.91041,-20 1.6514,-20  Q1.382,-20 1.1126,-20  Q0.561797,-20 1.80966e-14,-20 " /><path d="M85,-20 L84.8746,-20  L84.5048,-20  L83.9092,-20  L83.1174,-20  L82.1694,-20  L81.1126,-20  L80,-20  L78.8874,-20  L77.8306,-20  L76.8826,-20  L76.0908,-20  L75.4952,-20  L75.1254,-20  L75,-20 " /><path d="M75,-20 L75.1254,-20  L75.4952,-20  L76.0908,-20  L76.8826,-20  L77.8306,-20  L78.8874,-20  L80,-20  L81.1126,-20  L82.1694,-20  L83.1174,-20  L83.9092,-20  L84.5048,-20  L84.8746,-20  L85,-20 " /><path d="M165,-20 L164.875,-20  L164.505,-20  L163.909,-20  L163.117,-20  L162.169,-20  L161.113,-20  L160,-20  L158.887,-20  L157.831,-20  L156.883,-20  L156.091,-20  L155.495,-20  L155.125,-20  L155,-20 " /><path d="M155,-20 L155.125,-20  L155.495,-20  L156.091,-20  L156.883,-20  L157.831,-20  L158.887,-20  L160,-20  L161.113,-20  L162.169,-20  L163.117,-20  L163.909,-20  L164.505,-20  L164.875,-20  L165,-20 " /><path d="M325,-20 L324.875,-20  L324.505,-20  L323.909,-20  L323.117,-20  L322.169,-20  L321.113,-20  L320,-20  L318.887,-20  L317.831,-20  L316.883,-20  L316.091,-20  L315.495,-20  L315.125,-20  L315,-20 " /><path d="M315,-20 L315.125,-20  L315.495,-20  L316.091,-20  L316.883,-20  L317.831,-20  L318.887,-20  L320,-20  L321.113,-20  L322.169,-20  L323.117,-20  L323.909,-20  L324.505,-20  L324.875,-20  L325,-20 " /><path d="M245,-20 L244.875,-20  L244.505,-20  L243.909,-20  L243.117,-20  L242.169,-20  L241.113,-20  L240,-20  L238.887,-20  L237.831,-20  L236.883,-20  L236.091,-20  L235.495,-20  L235.125,-20  L235,-20 " /><path d="M235,-20 L235.125,-20  L235.495,-20  L236.091,-20  L236.883,-20  L237.831,-20  L238.887,-20  L240,-20  L241.113,-20  L242.169,-20  L243.117,-20  L243.909,-20  L244.505,-20  L244.875,-20  L245,-20 " /><path d="M400,-20 L399.44,-20  L398.887,-20  L398.349,-20  L397.831,-20  L397.34,-20  L396.883,-20  L396.464,-20  L396.091,-20  L395.766,-20  L395.495,-20  L395.281,-20  L395.125,-20  L395.031,-20  L395,-20 " /><path d="M395,-20 Q395.016,-20 395.031,-20  Q395.078,-20 395.125,-20  Q395.203,-20 395.281,-20  Q395.388,-20 395.495,-20  Q395.631,-20 395.766,-20  Q395.929,-20 396.091,-20  Q396.278,-20 396.464,-20  Q396.674,-20 396.883,-20  Q397.111,-20 397.34,-20  Q397.585,-20 397.831,-20  Q398.09,-20 398.349,-20  Q398.618,-20 398.887,-20  Q399.438,-20 400,-20 " /><path d="M405,-20 Q404.984,-20 404.969,-20  Q404.922,-20 404.875,-20  Q404.797,-20 404.719,-20  Q404.612,-20 404.505,-20  Q404.369,-20 404.234,-20  Q404.071,-20 403.909,-20  Q403.722,-20 403.536,-20  Q403.326,-20 403.117,-20  Q402.889,-20 402.66,-20  Q402.415,-20 402.169,-20  Q401.91,-20 401.651,-20  Q401.382,-20 401.113,-20  Q400.562,-20 400,-20 " /><path d="M400,-20 L400.56,-20  L401.113,-20  L401.651,-20  L402.169,-20  L402.66,-20  L403.117,-20  L403.536,-20  L403.909,-20  L404.234,-20  L404.505,-20  L404.719,-20  L404.875,-20  L404.969,-20  L405,-20 " /><path id= "41" d=" M 5 0 L 5 -20 " />
<path id= "42" d=" M 85 0 L 85 -20 " />
<path id= "43" d=" M 165 0 L 165 -20 " />
<path id= "44" d=" M 325 0 L 325 -20 " />
<path id= "45" d=" M 245 0 L 245 -20 " />
<path id= "46" d=" M 405 0 L 405 -20 " />
</g>
<g   fill="none"
   stroke="rgb(0, 0, 0)"
   stroke-dasharray="0.02,0.1)"
   stroke-linecap="butt"
   stroke-linejoin="miter"
   stroke-width="0.400000"
   transform="scale(1,-1)"
  >
<path id= "1" d=" M -5 0 L -5 -20 " />
<path id= "2" d=" M 75 0 L 75 -20 " />
<path id= "3" d=" M 155 0 L 155 -20 " />
<path id= "4" d=" M 315 0 L 315 -20 " />
<path id= "5" d=" M 235 0 L 235 -20 " />
<path id= "6" d=" M 395 0 L 395 -20 " />
</g>
<g   fill="none"
   stroke="rgb(0, 0, 0)"
   stroke-linecap="butt"
   stroke-linejoin="miter"
   stroke-width="0.933333"
   transform="scale(1,-1)"
  >
<path id= "1" d=" M 440 -5 L 440 -15 " />
<path id= "2" d=" M -40 -5 L -40 -15 " />
<path d="M-40,-5 C-40.0031,-3.86026 -39.5995,-2.72515 -38.8775,-1.84324  C-38.6367,-1.54768 -38.3657,-1.28301 -38.0645,-1.04922  C-37.1968,-0.372699 -36.1003,0.00269337 -35,0 " /><path d="M-40,-15 C-40.0006,-15.7593 -39.8248,-16.5181 -39.4901,-17.1997  C-39.1681,-17.8583 -38.6987,-18.4442 -38.1262,-18.9022  C-37.2488,-19.6089 -36.1266,-20.003 -35,-20 " /></g>
<g   fill="none"
   stroke="rgb(0, 0, 0)"
   stroke-linecap="butt"
   stroke-linejoin="miter"
   stroke-width="0.933333"
   transform="scale(1,-1)"
  >
<path id= "1" d=" M 400 -5 L 400 -15 " />
<path id= "2" d=" M 0 -5 L 0 -15 " />
<path d="M440 -5 A5 5 0 0 1 435 0" /><path d="M405,-20 L408.5,-20  L411.912,-20  L415.2,-20  L418.33,-20  L421.269,-20  L423.988,-20  L426.458,-20  L428.652,-20  L430.549,-20  L432.129,-20  L433.375,-20  L434.275,-20  L434.818,-20  L435,-20 " /><path d="M440 -15 A5 5 0 0 0 435 -20" /><path d="M435,0 L434.78,8.62126e-16  L434.122,1.71341e-15  L433.036,2.54315e-15  L431.534,3.3409e-15  L429.635,4.09665e-15  L427.364,4.80087e-15  L424.749,5.44472e-15  L421.822,6.0201e-15  L418.621,6.51978e-15  L415.186,6.93746e-15  L411.56,7.2679e-15  L407.788,7.50694e-15  L403.919,7.65158e-15  L400,7.7e-15 " /><path d="M435,-20 L434.78,-20  L434.122,-20  L433.036,-20  L431.534,-20  L429.635,-20  L427.364,-20  L424.749,-20  L421.822,-20  L418.621,-20  L415.186,-20  L411.56,-20  L407.788,-20  L403.919,-20  L400,-20 " /><path d="M-1.33227e-14,7.7e-15 L-3.91876,7.65158e-15  L-7.78823,7.50694e-15  L-11.5598,7.2679e-15  L-15.1859,6.93746e-15  L-18.6211,6.51978e-15  L-21.8221,6.0201e-15  L-24.7487,5.44472e-15  L-27.3641,4.80087e-15  L-29.6353,4.09665e-15  L-31.5339,3.3409e-15  L-33.0359,2.54315e-15  L-34.1225,1.71341e-15  L-34.7799,8.62126e-16  L-35,2.9676e-28 " /><path id= "9" d=" M 400 7.99e-15 L 0 7.99e-15 " />
<path d="M-1.33227e-14,-20 L-3.91876,-20  L-7.78823,-20  L-11.5598,-20  L-15.1859,-20  L-18.6211,-20  L-21.8221,-20  L-24.7487,-20  L-27.3641,-20  L-29.6353,-20  L-31.5339,-20  L-33.0359,-20  L-34.1225,-20  L-34.7799,-20  L-35,-20 " /><path id= "11" d=" M 400 -20 L 0 -20 " />
</g>
</g>



<g id="Ortho_1_1"
   transform="rotate(120,308.242,89.8717) translate(308.242,89.8717) scale(0.375,0.375)"
  >
<g   fill="none"
   stroke="rgb(0, 0, 0)"
   stroke-dasharray="0.2,0.1)"
   stroke-linecap="butt"
   stroke-linejoin="miter"
   stroke-width="0.400000"
   transform="scale(1,-1)"
  >
<path id= "1" d=" M 311.127 -151.052 L 311.127 -159.217 " />
<path id= "2" d=" M 28.2843 12.2474 L 28.2843 4.08248 " />
<path d="M3.53553 -14.2887 A5 2.88675 180 0 0 5 -16.3299" />
<path d="M5 -16.3299 A5 2.88675 180 0 0 3.53553 -18.3712" />
<path d="M-3.53553 -18.3712 A5 2.88675 180 0 0 -5 -16.3299" />
<path d="M-5 -16.3299 A5 2.88675 180 0 0 3.53553 -14.2887" />
<path d="M3.53553 -18.3712 A5 2.88675 180 0 0 -3.53553 -18.3712" />
<path d="M60.1041 -51.031 A5 2.88675 180 0 0 51.5685 -48.9898" />
<path d="M51.5685 -48.9898 A5 2.88675 180 0 0 61.5685 -48.9898" />
<path d="M61.5685 -48.9898 A5 2.88675 180 0 0 60.1041 -51.031" />
<path d="M116.673 -83.6909 A5 2.88675 180 0 0 108.137 -81.6497" />
<path d="M108.137 -81.6497 A5 2.88675 180 0 0 118.137 -81.6497" />
<path d="M118.137 -81.6497 A5 2.88675 180 0 0 116.673 -83.6909" />
<path d="M229.81 -149.011 A5 2.88675 180 0 0 221.274 -146.969" />
<path d="M221.274 -146.969 A5 2.88675 180 0 0 231.274 -146.969" />
<path d="M231.274 -146.969 A5 2.88675 180 0 0 229.81 -149.011" />
<path d="M173.241 -116.351 A5 2.88675 180 0 0 164.706 -114.31" />
<path d="M164.706 -114.31 A5 2.88675 180 0 0 174.706 -114.31" />
<path d="M174.706 -114.31 A5 2.88675 180 0 0 173.241 -116.351" />
<path d="M279.307 -181.67 A5 2.88675 180 0 0 277.843 -179.629" />
<path d="M277.843 -179.629 A5 2.88675 180 0 0 286.378 -177.588" />
<path d="M286.378 -181.67 A5 2.88675 180 0 0 279.307 -181.67" />
<path d="M286.378 -177.588 A5 2.88675 180 0 0 287.843 -179.629" />
<path d="M287.843 -179.629 A5 2.88675 180 0 0 286.378 -181.67" />
</g>
<g   fill="none"
   stroke="rgb(0, 0, 0)"
   stroke-dasharray="0.02,0.1)"
   stroke-linecap="butt"
   stroke-linejoin="miter"
   stroke-width="0.400000"
   transform="scale(1,-1)"
  >
<path id= "1" d=" M -5 0 L -5 -16.3299 " />
<path id= "2" d=" M 5 0 L 5 -16.3299 " />
<path id= "3" d=" M 51.5685 -32.6599 L 51.5685 -48.9898 " />
<path id= "4" d=" M 61.5685 -32.6599 L 61.5685 -48.9898 " />
<path id= "5" d=" M 108.137 -65.3197 L 108.137 -81.6497 " />
<path id= "6" d=" M 118.137 -65.3197 L 118.137 -81.6497 " />
<path id= "7" d=" M 221.274 -130.639 L 221.274 -146.969 " />
<path id= "8" d=" M 231.274 -130.639 L 231.274 -146.969 " />
<path id= "9" d=" M 164.706 -97.9796 L 164.706 -114.31 " />
<path id= "10" d=" M 174.706 -97.9796 L 174.706 -114.31 " />
<path id= "11" d=" M 277.843 -163.299 L 277.843 -179.629 " />
<path id= "12" d=" M 287.843 -163.299 L 287.843 -179.629 " />
</g>
<g   fill="none"
   stroke="rgb(0, 0, 0)"
   stroke-linecap="butt"
   stroke-linejoin="miter"
   stroke-width="0.933333"
   transform="scale(1,-1)"
  >
<path id= "1" d=" M 322.843 -167.382 L 322.843 -175.547 " />
<path id= "2" d=" M 27.2487 14.5363 L 310.091 -148.763 " />
<path id= "3" d=" M -40 -4.08248 L -40 -12.2474 " />
<path d="M310.091,-148.763 C314.67,-151.405 318.299,-154.78 320.507,-158.721  C322.023,-161.419 322.847,-164.391 322.843,-167.382 " /><path d="M322.843,-175.547 C322.847,-178.518 322.034,-181.471 320.537,-184.155  C318.332,-188.119 314.69,-191.512 310.091,-194.166 " /><path d="M310.091,-194.166 C307.055,-195.919 303.595,-197.354 299.862,-198.43  C294.555,-199.962 288.694,-200.758 282.826,-200.754  C276.989,-200.755 271.16,-199.965 265.877,-198.446  C262.124,-197.368 258.645,-195.927 255.594,-194.166 " /><path d="M-40,-4.08248 C-40.0039,-1.111 -39.1913,1.8421 -37.694,4.52534  C-36.716,6.28408 -35.4515,7.93479 -33.9474,9.45512  C-32.0971,11.3256 -29.8835,13.0014 -27.3803,14.46  C-24.2808,16.2666 -20.7335,17.74 -16.9008,18.835  C-11.6752,20.3307 -5.91683,21.1136 -0.14755,21.1246  C3.98869,21.1345 8.12619,20.7501 12.0681,19.9871  C17.6934,18.9003 22.909,17.044 27.2487,14.5363 " /><path d="M-27.2487,-30.8663 C-31.8623,-28.2039 -35.5128,-24.7972 -37.7155,-20.8166  C-39.1992,-18.1438 -40.0038,-15.2046 -40,-12.2474 " /><path id= "9" d=" M 255.594 -194.166 L -27.2487 -30.8663 " />
</g>
<g   fill="none"
   stroke="rgb(0, 0, 0)"
   stroke-linecap="butt"
   stroke-linejoin="miter"
   stroke-width="0.933333"
   transform="scale(1,-1)"
  >
<path id= "1" d=" M 254.558 -183.712 L 254.558 -191.877 " />
<path id= "2" d=" M -28.2843 -20.4124 L -28.2843 -28.5774 " />
<path d="M3.53553 2.04124 A5 2.88675 180 0 0 5 3.53525e-16" />
<path d="M5 3.53525e-16 A5 2.88675 180 0 0 3.53553 -2.04124" />
<path d="M3.53553 -2.04124 A5 2.88675 180 0 0 -3.53553 -2.04124" />
<path d="M-3.53553 -2.04124 A5 2.88675 180 0 0 -5 -7.0705e-16" />
<path d="M-5 0 A5 2.88675 180 0 0 3.53553 2.04124" />
<path d="M60.1041 -34.7011 A5 2.88675 180 0 0 51.5685 -32.6599" />
<path d="M51.5685 -32.6599 A5 2.88675 180 0 0 61.5685 -32.6599" />
<path d="M61.5685 -32.6599 A5 2.88675 180 0 0 60.1041 -34.7011" />
<path d="M116.673 -67.361 A5 2.88675 180 0 0 108.137 -65.3197" />
<path d="M108.137 -65.3197 A5 2.88675 180 0 0 118.137 -65.3197" />
<path d="M118.137 -65.3197 A5 2.88675 180 0 0 116.673 -67.361" />
<path d="M229.81 -132.681 A5 2.88675 180 0 0 221.274 -130.639" />
<path d="M221.274 -130.639 A5 2.88675 180 0 0 231.274 -130.639" />
<path d="M231.274 -130.639 A5 2.88675 180 0 0 229.81 -132.681" />
<path d="M173.241 -100.021 A5 2.88675 180 0 0 164.706 -97.9796" />
<path d="M164.706 -97.9796 A5 2.88675 180 0 0 174.706 -97.9796" />
<path d="M174.706 -97.9796 A5 2.88675 180 0 0 173.241 -100.021" />
<path d="M279.307 -165.341 A5 2.88675 180 0 0 277.843 -163.299" />
<path d="M277.843 -163.299 A5 2.88675 180 0 0 286.378 -161.258" />
<path d="M286.378 -161.258 A5 2.88675 180 0 0 287.843 -163.299" />
<path d="M287.843 -163.299 A5 2.88675 180 0 0 286.378 -165.341" />
<path d="M286.378 -165.341 A5 2.88675 180 0 0 279.307 -165.341" />
</g>
</g>



<g id="Ortho_1_0"
   transform="rotate(-90,327.573,252.964) translate(327.573,252.964) scale(0.375,0.375)"
  >
<g   fill="none"
   stroke="rgb(0, 0, 0)"
   stroke-dasharray="0.2,0.1)"
   stroke-linecap="butt"
   stroke-linejoin="miter"
   stroke-width="0.400000"
   transform="scale(1,-1)"
  >
<path id= "1" d=" M -40 0 L -40 400 " />
<path d="M-40 400 A40 40 0 0 0 1.86443e-14 440" /><path d="M40 -1.52e-14 A40 40 0 0 0 -40 1.03014e-14" /><path d="M-5 1.68451e-14 A5 5 0 0 0 -1.22465e-15 5" /><path d="M5 1.80697e-14 A5 5 0 1 0 -5 1.68451e-14" /><path d="M0 5 A5 5 0 0 0 5 1.80697e-14" /><circle cx ="0" cy ="80" r ="5" /><circle cx ="0" cy ="160" r ="5" /><circle cx ="0" cy ="320" r ="5" /><circle cx ="0" cy ="240" r ="5" /><path d="M5 400 A5 5 0 0 0 -5 400" /><path d="M0 405 A5 5 0 0 0 5 400" /><path d="M-5 400 A5 5 0 0 0 -1.22465e-15 405" /></g>
<g   fill="none"
   stroke="rgb(0, 0, 0)"
   stroke-linecap="butt"
   stroke-linejoin="miter"
   stroke-width="0.933333"
   transform="scale(1,-1)"
  >
<path id= "1" d=" M -40 0 L -40 400 " />
<path d="M-40 400 A40 40 0 0 0 1.64243e-14 440" /><path d="M1.11e-15 440 A40 40 0 0 0 40 400" /><path d="M3.33e-15 440 A40 40 0 0 0 40 400" /><path id= "5" d=" M 40 400 L 40 0 " />
<path id= "6" d=" M 40 400 L 40 0 " />
<path d="M40 -1.52e-14 A40 40 0 0 0 -40 1.03014e-14" /><path d="M-5 1.68451e-14 A5 5 0 0 0 -1.22465e-15 5" /><path d="M0 5 A5 5 0 0 0 5 1.80697e-14" /><path d="M5 1.80697e-14 A5 5 0 1 0 -5 1.68451e-14" /><circle cx ="0" cy ="80" r ="5" /><circle cx ="0" cy ="160" r ="5" /><circle cx ="0" cy ="320" r ="5" /><circle cx ="0" cy ="240" r ="5" /><path d="M5 400 A5 5 0 0 0 -5 400" /><path d="M-5 400 A5 5 0 0 0 -1.22465e-15 405" /><path d="M0 405 A5 5 0 0 0 5 400" /></g>
</g>



<g> 
  <line x1="177.573000" y1="250.964000" x2="177.573000" y2="244.986802" style="stroke:rgb(0,0,255);stroke-width:0.50" />
<line x1="207.573000" y1="250.964000" x2="207.573000" y2="244.986802" style="stroke:rgb(0,0,255);stroke-width:0.50" />
<line x1="177.573000" y1="245.986802" x2="207.573000" y2="245.986802" style="stroke:rgb(0,0,255);stroke-width:0.50" /> 
  <polygon points="207.573000,245.986802 204.573000,244.986802 203.573000,245.986802 204.573000,246.986802" style="fill:rgb(0,0,255);stroke:rgb(0,0,255);stroke-width:0" /><polygon points="177.573000,245.986802 180.573000,246.986802 181.573000,245.986802 180.573000,244.986802" style="fill:rgb(0,0,255);stroke:rgb(0,0,255);stroke-width:0" /> 
  <text x="192.573000" y="243.986802" font-family="inherit" font-size="3.6" fill="rgb(0,0,255)" text-anchor="middle" transform="rotate(0.000000 192.573000,243.986802)" >80</text> </g>


<g> <line x1="77.536500" y1="195.927100" x2="77.536500" y2="226.473974" style="stroke:rgb(0,0,255);stroke-width:0.50" />
<line x1="85.036500" y1="195.927100" x2="85.036500" y2="226.473974" style="stroke:rgb(0,0,255);stroke-width:0.50" />
<line x1="77.536500" y1="225.473974" x2="85.036500" y2="225.473974" style="stroke:rgb(0,0,255);stroke-width:0.50" />
<polygon points="77.536500,225.473974 74.536500,224.473974 73.536500,225.473974 74.536500,226.473974" style="fill:rgb(0,0,255);stroke:rgb(0,0,255);stroke-width:0" />
<polygon points="85.036500,225.473974 88.036500,226.473974 89.036500,225.473974 88.036500,224.473974" style="fill:rgb(0,0,255);stroke:rgb(0,0,255);stroke-width:0" />
<text x="81.286500" y="223.473974" font-family="inherit" font-size="3.6" fill="rgb(0,0,255)" text-anchor="middle" transform="rotate(-0.000000 81.286500,223.473974)" >20</text> </g> 


<g> <line x1="175.573000" y1="267.964000" x2="140.294541" y2="267.964000" style="stroke:rgb(0,0,255);stroke-width:0.50" />
<line x1="175.573000" y1="237.964000" x2="140.294541" y2="237.964000" style="stroke:rgb(0,0,255);stroke-width:0.50" />
<line x1="141.294541" y1="267.964000" x2="141.294541" y2="237.964000" style="stroke:rgb(0,0,255);stroke-width:0.50" />
<polygon points="141.294541,267.964000 142.294541,264.964000 141.294541,263.964000 140.294541,264.964000" style="fill:rgb(0,0,255);stroke:rgb(0,0,255);stroke-width:0" />
<polygon points="141.294541,237.964000 140.294541,240.964000 141.294541,241.964000 142.294541,240.964000" style="fill:rgb(0,0,255);stroke:rgb(0,0,255);stroke-width:0" />
<text x="139.294541" y="252.964000" font-family="inherit" font-size="3.6" fill="rgb(0,0,255)" text-anchor="middle" transform="rotate(-90.000000 139.294541,252.964000)" >80</text> </g> 


<g>  <circle cx ="177.573000" cy ="252.964000" r="0.250000" stroke="none" fill="rgb(0,0,255)" /> 
<line x1="181.173212" y1="257.643549" x2="176.429681" y2="251.477916" style="stroke:rgb(0,0,255);stroke-width:0.50" />
<polygon points="178.716319,254.450084 179.753051,257.437589 181.155400,257.620397 181.338208,256.218049" style="fill:rgb(0,0,255);stroke:rgb(0,0,255);stroke-width:0" />
<polygon points="176.429681,251.477916 175.392949,248.490411 173.990600,248.307603 173.807792,249.709951" style="fill:rgb(0,0,255);stroke:rgb(0,0,255);stroke-width:0" />
<line x1="181.173212" y1="257.643549" x2="189.487088" y2="257.643549" style="stroke:rgb(0,0,255);stroke-width:0.50" />
<text x="185.330150" y="255.643549" font-family="inherit" font-size="3.6" fill="rgb(0,0,255)" text-anchor="middle" transform="rotate(0.000000 185.330150,255.643549)" >Ø10</text> </g>


<g> 
  <line x1="177.573000" y1="250.964000" x2="177.573000" y2="224.653919" style="stroke:rgb(0,0,255);stroke-width:0.50" />
<line x1="162.573000" y1="250.964000" x2="162.573000" y2="224.653919" style="stroke:rgb(0,0,255);stroke-width:0.50" />
<line x1="177.573000" y1="225.653919" x2="162.573000" y2="225.653919" style="stroke:rgb(0,0,255);stroke-width:0.50" /> 
  <polygon points="162.573000,225.653919 165.573000,226.653919 166.573000,225.653919 165.573000,224.653919" style="fill:rgb(0,0,255);stroke:rgb(0,0,255);stroke-width:0" /><polygon points="177.573000,225.653919 174.573000,224.653919 173.573000,225.653919 174.573000,226.653919" style="fill:rgb(0,0,255);stroke:rgb(0,0,255);stroke-width:0" /> 
  <text x="170.073000" y="223.653919" font-family="inherit" font-size="3.6" fill="rgb(0,0,255)" text-anchor="middle" transform="rotate(0.000000 170.073000,223.653919)" >40</text> </g>


</svg>

