<?xml version="1.0" encoding="UTF-8"?>

<svg xmlns="http://www.w3.org/2000/svg" version="1.1"
    xmlns:freecad="http://www.freecadweb.org/wiki/index.php?title=Svg_Namespace"
	width="420mm"
	height="297mm"
	viewBox="0 0 420 297">
	<!-- Working space 0 0 420 297 -->
	<defs>
		<radialGradient
			id="radialGradient3661"
			gradientUnits="userSpaceOnUse"
			cy="29.149"
			cx="282.65"
			gradientTransform="matrix(.14777 .23089 -.24680 .15795 -26.318 -62.617)"
			r="19.571">
				<stop stop-color="#71b2f8" offset="0"/>
				<stop stop-color="#002795" offset="1"/>
		</radialGradient>
		<radialGradient
			id="radialGradient3817"
			gradientUnits="userSpaceOnUse"
			cy="33.9"
			cx="270.58"
			gradientTransform="matrix(.26631 .065024 -.17931 .73438 -60.668 -36.938)"
			r="19.571">
				<stop stop-color="#ff6d0f" offset="0"/>
				<stop stop-color="#ff1000" offset="1"/>
		</radialGradient>
	</defs>
	<!-- Set display:none to hide FreeCAD Logo -->
	<g
		style="display:inline"
		id="freecad-logo"
		transform="translate(386, 264) scale(1.5)"
		fill-rule="evenodd"
		stroke-width=".45621">
		<path d="m0.22811 0.22835v13.256h2.9558v-5.1876h2.09v-2.0452h-2.09v-2.2075h5.1486v-3.8087l-8.1044-0.0075z"
			stroke="#370700"
			fill="url(#radialGradient3817)"/>
		<path d="m13.386 4.1792-1.7193 0.98645-0.75925-0.26348-0.72439-1.8513-1.1395 0.05988-0.51976 1.9144-0.72743 0.34835-1.8143-0.79367-0.76632 0.85156 0.98645 1.7193-0.26957 0.75702-1.8513 0.72439 0.065967 1.1417 1.9144 0.51976 0.34835 0.72743-0.79976 1.8121 0.85156 0.76632 1.7193-0.98645 0.76311 0.27179 0.7183 1.8491 1.1478-0.06375 0.51367-1.9166 0.72743-0.34835 1.8182 0.80198 0.76632-0.85156-0.98645-1.7193 0.2657-0.76533 1.8491-0.7183-0.05766-1.1456-1.9166-0.51367-0.34835-0.72743 0.7959-1.8204-0.85156-0.76632zm-2.5751 2.8195 0.35295 0.20478 0.30579 0.27725 0.24481 0.33087 0.17611 0.36787 0.10354 0.39656 0.01715 0.4064-0.0587 0.4063-0.13396 0.38571-0.2131 0.35681-0.26894 0.30192-0.33087 0.24481-0.36787 0.17611-0.39656 0.10354-0.40863 0.02325-0.4063-0.0587-0.38571-0.13396-0.35681-0.2131-0.2997-0.27503-0.24703-0.32478-0.17611-0.36787-0.10132-0.40264-0.02324-0.40863 0.05869-0.4063 0.13396-0.38571 0.21087-0.35072 0.27116-0.30801 0.33087-0.24481 0.36787-0.17611 0.40264-0.10132 0.40641-0.01715 0.4063 0.05869 0.38571 0.13396z" 
		stroke="#000137"
		fill="url(#radialGradient3661)"/>
	</g>
<g id="Ortho_0_0"
   transform="rotate(-90,200,218) translate(200,218) scale(1.5,1.5)"
  >
<g   fill="none"
   stroke="rgb(0, 0, 0)"
   stroke-dasharray="0.2,0.1)"
   stroke-linecap="butt"
   stroke-linejoin="miter"
   stroke-width="0.100000"
   transform="scale(1,-1)"
  >
<path id= "1" d=" M -40 0 L 40 0 " />
<path id= "2" d=" M 40 0 L 40 -120 " />
<path id= "3" d=" M 20 -120 L 40 -120 " />
<path id= "4" d=" M -40 -20 L 20 -120 " />
<path id= "5" d=" M -40 0 L -40 -20 " />
<path d="M0,0 L0.559822,0  L1.1126,0  L1.6514,0  L2.16942,0  L2.66016,0  L3.11745,0  L3.53553,0  L3.90916,0  L4.23362,0  L4.50484,0  L4.71942,0  L4.87464,0  L4.96856,0  L5,0 " /><path d="M5,0 L4.87464,0  L4.50484,0  L3.90916,0  L3.11745,0  L2.16942,0  L1.1126,0  L6.66134e-16,0  L-1.1126,0  L-2.16942,0  L-3.11745,0  L-3.90916,0  L-4.50484,0  L-4.87464,0  L-5,0 " /><path d="M-5,0 Q-4.98428,0 -4.96856,0  Q-4.9216,0 -4.87464,0  Q-4.79703,0 -4.71942,0  Q-4.61213,0 -4.50484,0  Q-4.36923,0 -4.23362,0  Q-4.07139,0 -3.90916,0  Q-3.72235,0 -3.53553,0  Q-3.32649,0 -3.11745,0  Q-2.8888,0 -2.66016,0  Q-2.41479,0 -2.16942,0  Q-1.91041,0 -1.6514,0  Q-1.382,0 -1.1126,0  Q-0.561797,0 -1.11022e-15,0 " /><path d="M40,-100 L40,-100.56  L40,-101.113  L40,-101.651  L40,-102.169  L40,-102.66  L40,-103.117  L40,-103.536  L40,-103.909  L40,-104.234  L40,-104.505  L40,-104.719  L40,-104.875  L40,-104.969  L40,-105 " /><path d="M40,-105 L40,-104.875  L40,-104.505  L40,-103.909  L40,-103.117  L40,-102.169  L40,-101.113  L40,-100  L40,-98.8874  L40,-97.8306  L40,-96.8826  L40,-96.0908  L40,-95.4952  L40,-95.1254  L40,-95 " /><path d="M40,-95 Q40,-95.0157 40,-95.0314  Q40,-95.0784 40,-95.1254  Q40,-95.203 40,-95.2806  Q40,-95.3879 40,-95.4952  Q40,-95.6308 40,-95.7664  Q40,-95.9286 40,-96.0908  Q40,-96.2777 40,-96.4645  Q40,-96.6735 40,-96.8826  Q40,-97.1112 40,-97.3398  Q40,-97.5852 40,-97.8306  Q40,-98.0896 40,-98.3486  Q40,-98.618 40,-98.8874  Q40,-99.4382 40,-100 " /><path id= "12" d=" M -40 -20 L 20 -120 " />
<path d="M0,-20 L0.559822,-20  L1.1126,-20  L1.6514,-20  L2.16942,-20  L2.66016,-20  L3.11745,-20  L3.53553,-20  L3.90916,-20  L4.23362,-20  L4.50484,-20  L4.71942,-20  L4.87464,-20  L4.96856,-20  L5,-20 " /><path d="M5,-20 L4.87464,-20  L4.50484,-20  L3.90916,-20  L3.11745,-20  L2.16942,-20  L1.1126,-20  L6.66134e-16,-20  L-1.1126,-20  L-2.16942,-20  L-3.11745,-20  L-3.90916,-20  L-4.50484,-20  L-4.87464,-20  L-5,-20 " /><path d="M-5,-20 Q-4.98428,-20 -4.96856,-20  Q-4.9216,-20 -4.87464,-20  Q-4.79703,-20 -4.71942,-20  Q-4.61213,-20 -4.50484,-20  Q-4.36923,-20 -4.23362,-20  Q-4.07139,-20 -3.90916,-20  Q-3.72235,-20 -3.53553,-20  Q-3.32649,-20 -3.11745,-20  Q-2.8888,-20 -2.66016,-20  Q-2.41479,-20 -2.16942,-20  Q-1.91041,-20 -1.6514,-20  Q-1.382,-20 -1.1126,-20  Q-0.561797,-20 -1.11022e-15,-20 " /><path d="M20,-100 L20,-100.56  L20,-101.113  L20,-101.651  L20,-102.169  L20,-102.66  L20,-103.117  L20,-103.536  L20,-103.909  L20,-104.234  L20,-104.505  L20,-104.719  L20,-104.875  L20,-104.969  L20,-105 " /><path d="M20,-105 L20,-104.875  L20,-104.505  L20,-103.909  L20,-103.117  L20,-102.169  L20,-101.113  L20,-100  L20,-98.8874  L20,-97.8306  L20,-96.8826  L20,-96.0908  L20,-95.4952  L20,-95.1254  L20,-95 " /><path d="M20,-95 Q20,-95.0157 20,-95.0314  Q20,-95.0784 20,-95.1254  Q20,-95.203 20,-95.2806  Q20,-95.3879 20,-95.4952  Q20,-95.6308 20,-95.7664  Q20,-95.9286 20,-96.0908  Q20,-96.2777 20,-96.4645  Q20,-96.6735 20,-96.8826  Q20,-97.1112 20,-97.3398  Q20,-97.5852 20,-97.8306  Q20,-98.0896 20,-98.3486  Q20,-98.618 20,-98.8874  Q20,-99.4382 20,-100 " /><path id= "19" d=" M -40 -20 L 20 -120 " />
<path id= "20" d=" M 20 -20 L 20 -120 " />
<path id= "21" d=" M 20 -20 L 20 -120 " />
<path id= "22" d=" M -40 -20 L 20 -20 " />
<path id= "23" d=" M -40 -20 L 20 -20 " />
</g>
<g   fill="none"
   stroke="rgb(0, 0, 0)"
   stroke-dasharray="0.02,0.1)"
   stroke-linecap="butt"
   stroke-linejoin="miter"
   stroke-width="0.100000"
   transform="scale(1,-1)"
  >
<path id= "1" d=" M 5 -20 L 5 0 " />
<path id= "2" d=" M -5 -20 L -5 0 " />
<path id= "3" d=" M 20 -105 L 40 -105 " />
<path id= "4" d=" M 20 -95 L 40 -95 " />
</g>
<g   fill="none"
   stroke="rgb(0, 0, 0)"
   stroke-linecap="butt"
   stroke-linejoin="miter"
   stroke-width="0.233333"
   transform="scale(1,-1)"
  >
<path id= "1" d=" M -40 0 L 40 0 " />
<path id= "2" d=" M 40 0 L 40 -120 " />
<path id= "3" d=" M 20 -120 L 40 -120 " />
<path id= "4" d=" M -40 0 L -40 -20 " />
<path id= "5" d=" M -40 -20 L 20 -120 " />
</g>
</g>



<g id="Ortho_0_1"
   transform="rotate(90,200,79) translate(200,79) scale(1.5,1.5)"
  >
<g   fill="none"
   stroke="rgb(0, 0, 0)"
   stroke-dasharray="0.2,0.1)"
   stroke-linecap="butt"
   stroke-linejoin="miter"
   stroke-width="0.100000"
   transform="scale(1,-1)"
  >
<path id= "1" d=" M -40 20 L -40 120 " />
<path id= "2" d=" M -40 0 L -40 20 " />
<path id= "3" d=" M -40 0 L 40 0 " />
<path d="M5,0 L4.87464,0  L4.50484,0  L3.90916,0  L3.11745,0  L2.16942,0  L1.1126,0  L2.22045e-16,0  L-1.1126,0  L-2.16942,0  L-3.11745,0  L-3.90916,0  L-4.50484,0  L-4.87464,0  L-5,0 " /><path d="M-5,0 L-4.87464,0  L-4.50484,0  L-3.90916,0  L-3.11745,0  L-2.16942,0  L-1.1126,0  L-8.88178e-16,0  L1.1126,0  L2.16942,0  L3.11745,0  L3.90916,0  L4.50484,0  L4.87464,0  L5,0 " /><path id= "6" d=" M -40 120 L -20 120 " />
<path id= "7" d=" M 20 120 L 40 120 " />
<path id= "8" d=" M -20 120 L 20 120 " />
<path id= "9" d=" M -40 20 L -20 20 " />
<path id= "10" d=" M -20 20 L -20 120 " />
<path id= "11" d=" M -20 20 L 20 20 " />
<path id= "12" d=" M 20 20 L 40 20 " />
<path id= "13" d=" M 40 0 L 40 20 " />
<path id= "14" d=" M 40 20 L 40 120 " />
<path id= "15" d=" M 5 20 L 5 0 " />
<path d="M5,20 L4.87464,20  L4.50484,20  L3.90916,20  L3.11745,20  L2.16942,20  L1.1126,20  L2.22045e-16,20  L-1.1126,20  L-2.16942,20  L-3.11745,20  L-3.90916,20  L-4.50484,20  L-4.87464,20  L-5,20 " /><path d="M-5,20 L-4.87464,20  L-4.50484,20  L-3.90916,20  L-3.11745,20  L-2.16942,20  L-1.1126,20  L-8.88178e-16,20  L1.1126,20  L2.16942,20  L3.11745,20  L3.90916,20  L4.50484,20  L4.87464,20  L5,20 " /><circle cx ="0" cy ="100" r ="5" /><path id= "19" d=" M 20 20 L 20 120 " />
<path id= "20" d=" M -20 20 L -20 120 " />
<path id= "21" d=" M -20 20 L 20 20 " />
<path id= "22" d=" M 20 20 L 20 120 " />
</g>
<g   fill="none"
   stroke="rgb(0, 0, 0)"
   stroke-dasharray="0.02,0.1)"
   stroke-linecap="butt"
   stroke-linejoin="miter"
   stroke-width="0.100000"
   transform="scale(1,-1)"
  >
<path id= "1" d=" M -5 20 L -5 0 " />
</g>
<g   fill="none"
   stroke="rgb(0, 0, 0)"
   stroke-linecap="butt"
   stroke-linejoin="miter"
   stroke-width="0.233333"
   transform="scale(1,-1)"
  >
<path id= "1" d=" M -40 0 L -40 120 " />
<path id= "2" d=" M -40 0 L 40 0 " />
<path id= "3" d=" M 40 0 L 40 120 " />
<path id= "4" d=" M -40 120 L 40 120 " />
<circle cx ="0" cy ="100" r ="5" /></g>
</g>



<g id="Ortho_-1_0"
   transform="rotate(90,100,218) translate(100,218) scale(1.5,1.5)"
  >
<g   fill="none"
   stroke="rgb(0, 0, 0)"
   stroke-dasharray="0.2,0.1)"
   stroke-linecap="butt"
   stroke-linejoin="miter"
   stroke-width="0.100000"
   transform="scale(1,-1)"
  >
<path id= "1" d=" M -20 -40 L -40 -40 " />
<path id= "2" d=" M 40 -40 L -20 -40 " />
<path id= "3" d=" M -40 -40 L -40 40 " />
<path d="M-40,5 L-40,4.87464  L-40,4.50484  L-40,3.90916  L-40,3.11745  L-40,2.16942  L-40,1.1126  L-40,2.22045e-16  L-40,-1.1126  L-40,-2.16942  L-40,-3.11745  L-40,-3.90916  L-40,-4.50484  L-40,-4.87464  L-40,-5 " /><path d="M-40,-5 L-40,-4.87464  L-40,-4.50484  L-40,-3.90916  L-40,-3.11745  L-40,-2.16942  L-40,-1.1126  L-40,-8.88178e-16  L-40,1.1126  L-40,2.16942  L-40,3.11745  L-40,3.90916  L-40,4.50484  L-40,4.87464  L-40,5 " /><path id= "6" d=" M -20 -40 L -20 -20 " />
<path id= "7" d=" M -20 40 L -40 40 " />
<path id= "8" d=" M -20 20 L -20 40 " />
<path id= "9" d=" M -20 -20 L -20 20 " />
<path id= "10" d=" M 40 -40 L 40 -20 " />
<path id= "11" d=" M 40 -20 L -20 -20 " />
<path id= "12" d=" M 40 -20 L 40 20 " />
<path id= "13" d=" M 40 20 L 40 40 " />
<path id= "14" d=" M 40 40 L -20 40 " />
<circle cx ="0" cy ="0" r ="5" /><path id= "16" d=" M -20 5 L -40 5 " />
<path d="M-20,5 L-20,4.87464  L-20,4.50484  L-20,3.90916  L-20,3.11745  L-20,2.16942  L-20,1.1126  L-20,2.22045e-16  L-20,-1.1126  L-20,-2.16942  L-20,-3.11745  L-20,-3.90916  L-20,-4.50484  L-20,-4.87464  L-20,-5 " /><path d="M-20,-5 L-20,-4.87464  L-20,-4.50484  L-20,-3.90916  L-20,-3.11745  L-20,-2.16942  L-20,-1.1126  L-20,-8.88178e-16  L-20,1.1126  L-20,2.16942  L-20,3.11745  L-20,3.90916  L-20,4.50484  L-20,4.87464  L-20,5 " /><path id= "19" d=" M 40 20 L -20 20 " />
<path id= "20" d=" M -20 -20 L -20 20 " />
<path id= "21" d=" M 40 -20 L -20 -20 " />
<path id= "22" d=" M 40 20 L -20 20 " />
</g>
<g   fill="none"
   stroke="rgb(0, 0, 0)"
   stroke-dasharray="0.02,0.1)"
   stroke-linecap="butt"
   stroke-linejoin="miter"
   stroke-width="0.100000"
   transform="scale(1,-1)"
  >
<path id= "1" d=" M -20 -5 L -40 -5 " />
</g>
<g   fill="none"
   stroke="rgb(0, 0, 0)"
   stroke-linecap="butt"
   stroke-linejoin="miter"
   stroke-width="0.233333"
   transform="scale(1,-1)"
  >
<path id= "1" d=" M 40 -40 L -40 -40 " />
<path id= "2" d=" M 40 -40 L 40 40 " />
<path id= "3" d=" M 40 40 L -40 40 " />
<path id= "4" d=" M -40 -40 L -40 40 " />
<circle cx ="0" cy ="0" r ="5" /></g>
</g>



<g id="Ortho_-1_1"
   transform="rotate(60,57.5736,103.495) translate(57.5736,103.495) scale(1,1)"
  >
<g   fill="none"
   stroke="rgb(0, 0, 0)"
   stroke-dasharray="0.2,0.1)"
   stroke-linecap="butt"
   stroke-linejoin="miter"
   stroke-width="0.150000"
   transform="scale(1,-1)"
  >
<path id= "1" d=" M -42.4264 89.8146 L -56.5685 97.9796 " />
<path id= "2" d=" M 0 -16.3299 L -42.4264 89.8146 " />
<path id= "3" d=" M 0 -32.6599 L 0 -16.3299 " />
<path id= "4" d=" M -42.4264 89.8146 L -28.2843 97.9796 " />
<path id= "5" d=" M 0 114.31 L 14.1421 122.474 " />
<path id= "6" d=" M -28.2843 97.9796 L 0 114.31 " />
<path id= "7" d=" M 0 -16.3299 L 14.1421 -8.16497 " />
<path id= "8" d=" M 14.1421 -8.16497 L -28.2843 97.9796 " />
<path id= "9" d=" M 14.1421 -8.16497 L 42.4264 8.16497 " />
<path id= "10" d=" M 42.4264 8.16497 L 56.5685 16.3299 " />
<path d="M3.53553 18.3712 A5 2.88675 180 0 1 -5 16.3299" />
<path d="M-5 16.3299 A5 2.88675 180 0 1 5 16.3299" />
<path d="M5 16.3299 A5 2.88675 180 0 1 3.53553 18.3712" />
<path d="M-10.6066 91.8559 A5 2.88675 60 0 1 -11.6421 94.1448" />
<path d="M-11.6421 94.1448 A5 2.88675 60 0 1 -16.6421 85.4845" />
<path d="M-16.6421 85.4845 A5 2.88675 60 0 1 -10.6066 91.8559" />
<path id= "17" d=" M 42.4264 8.16497 L 0 114.31 " />
<path id= "18" d=" M -28.2843 16.3299 L -28.2843 97.9796 " />
<path id= "19" d=" M -28.2843 16.3299 L 0 32.6599 " />
<path id= "20" d=" M 0 32.6599 L 0 114.31 " />
<path id= "21" d=" M 14.1421 -8.16497 L -28.2843 16.3299 " />
<path id= "22" d=" M 42.4264 8.16497 L 0 32.6599 " />
</g>
<g   fill="none"
   stroke="rgb(0, 0, 0)"
   stroke-dasharray="0.02,0.1)"
   stroke-linecap="butt"
   stroke-linejoin="miter"
   stroke-width="0.150000"
   transform="scale(1,-1)"
  >
<path id= "1" d=" M -5 16.3299 L -5 0 " />
<path id= "2" d=" M 5 16.3299 L 5 0 " />
<path id= "3" d=" M -11.6421 94.1448 L -25.7843 102.31 " />
<path id= "4" d=" M -16.6421 85.4845 L -30.7843 93.6495 " />
</g>
<g   fill="none"
   stroke="rgb(0, 0, 0)"
   stroke-linecap="butt"
   stroke-linejoin="miter"
   stroke-width="0.350000"
   transform="scale(1,-1)"
  >
<path id= "1" d=" M 0 -32.6599 L -56.5685 0 " />
<path id= "2" d=" M -56.5685 0 L -56.5685 97.9796 " />
<path id= "3" d=" M 0 -32.6599 L 56.5685 0 " />
<path id= "4" d=" M 56.5685 0 L 0 32.6599 " />
<path id= "5" d=" M -56.5685 -3.55271e-15 L 0 32.6599 " />
<path d="M3.53553 2.04124 A5 2.88675 180 0 1 -5 7.0705e-16" />
<path d="M-5 0 A5 2.88675 180 0 1 5 -3.53525e-16" />
<path d="M5 -3.53525e-16 A5 2.88675 180 0 1 3.53553 2.04124" />
<path id= "9" d=" M 0 32.6599 L 0 130.639 " />
<path id= "10" d=" M -56.5685 97.9796 L 0 130.639 " />
<path d="M-24.7487 100.021 A5 2.88675 60 0 1 -25.7843 102.31" />
<path d="M-25.7843 102.31 A5 2.88675 60 0 1 -30.7843 93.6495" />
<path d="M-30.7843 93.6495 A5 2.88675 60 0 1 -24.7487 100.021" />
<path id= "14" d=" M 14.1421 122.474 L 0 130.639 " />
<path id= "15" d=" M 56.5685 0 L 56.5685 16.3299 " />
<path id= "16" d=" M 56.5685 16.3299 L 14.1421 122.474 " />
</g>
</g>



<g> <line x1="130.000000" y1="263.821306" x2="160.000000" y2="263.821306" style="stroke:rgb(0,0,255);stroke-width:0.50" />
<polygon points="130.000000,263.821306 133.000000,264.821306 134.000000,263.821306 133.000000,262.821306" style="fill:rgb(0,0,255);stroke:rgb(0,0,255);stroke-width:0" />
<polygon points="160.000000,263.821306 157.000000,262.821306 156.000000,263.821306 157.000000,264.821306" style="fill:rgb(0,0,255);stroke:rgb(0,0,255);stroke-width:0" />
<text x="145.000000" y="261.821306" font-family="inherit" font-size="3.6" fill="rgb(0,0,255)" text-anchor="middle" transform="rotate(0.000000 145.000000,261.821306)" >20</text> </g> 


<g> <line x1="213.952645" y1="210.500000" x2="213.952645" y2="225.500000" style="stroke:rgb(0,0,255);stroke-width:0.50" />
<polygon points="213.952645,210.500000 212.952645,213.500000 213.952645,214.500000 214.952645,213.500000" style="fill:rgb(0,0,255);stroke:rgb(0,0,255);stroke-width:0" />
<polygon points="213.952645,225.500000 214.952645,222.500000 213.952645,221.500000 212.952645,222.500000" style="fill:rgb(0,0,255);stroke:rgb(0,0,255);stroke-width:0" />
<text x="211.952645" y="218.000000" font-family="inherit" font-size="3.6" fill="rgb(0,0,255)" text-anchor="middle" transform="rotate(-90.000000 211.952645,218.000000)" >10</text> </g> 


<g> <line x1="130.000000" y1="246.394086" x2="70.000000" y2="246.394086" style="stroke:rgb(0,0,255);stroke-width:0.50" />
<polygon points="130.000000,246.394086 127.000000,245.394086 126.000000,246.394086 127.000000,247.394086" style="fill:rgb(0,0,255);stroke:rgb(0,0,255);stroke-width:0" />
<polygon points="70.000000,246.394086 73.000000,247.394086 74.000000,246.394086 73.000000,245.394086" style="fill:rgb(0,0,255);stroke:rgb(0,0,255);stroke-width:0" />
<text x="100.000000" y="244.394086" font-family="inherit" font-size="3.6" fill="rgb(0,0,255)" text-anchor="middle" transform="rotate(0.000000 100.000000,244.394086)" >40</text> </g> 


<g> <line x1="52.013550" y1="278.000000" x2="52.013550" y2="158.000000" style="stroke:rgb(0,0,255);stroke-width:0.50" />
<polygon points="52.013550,278.000000 53.013550,275.000000 52.013550,274.000000 51.013550,275.000000" style="fill:rgb(0,0,255);stroke:rgb(0,0,255);stroke-width:0" />
<polygon points="52.013550,158.000000 51.013550,161.000000 52.013550,162.000000 53.013550,161.000000" style="fill:rgb(0,0,255);stroke:rgb(0,0,255);stroke-width:0" />
<text x="50.013550" y="218.000000" font-family="inherit" font-size="3.6" fill="rgb(0,0,255)" text-anchor="middle" transform="rotate(-90.000000 50.013550,218.000000)" >80</text> </g> 


<g> <line x1="200.000000" y1="129.229542" x2="380.000000" y2="129.229542" style="stroke:rgb(0,0,255);stroke-width:0.50" />
<polygon points="200.000000,129.229542 203.000000,130.229542 204.000000,129.229542 203.000000,128.229542" style="fill:rgb(0,0,255);stroke:rgb(0,0,255);stroke-width:0" />
<polygon points="380.000000,129.229542 377.000000,128.229542 376.000000,129.229542 377.000000,130.229542" style="fill:rgb(0,0,255);stroke:rgb(0,0,255);stroke-width:0" />
<text x="290.000000" y="127.229542" font-family="inherit" font-size="3.6" fill="rgb(0,0,255)" text-anchor="middle" transform="rotate(0.000000 290.000000,127.229542)" >120</text> </g> 


<g> <line x1="206.981757" y1="278.000000" x2="206.981757" y2="225.500000" style="stroke:rgb(0,0,255);stroke-width:0.50" />
<polygon points="206.981757,278.000000 207.981757,275.000000 206.981757,274.000000 205.981757,275.000000" style="fill:rgb(0,0,255);stroke:rgb(0,0,255);stroke-width:0" />
<polygon points="206.981757,225.500000 205.981757,228.500000 206.981757,229.500000 207.981757,228.500000" style="fill:rgb(0,0,255);stroke:rgb(0,0,255);stroke-width:0" />
<text x="204.981757" y="251.750000" font-family="inherit" font-size="3.6" fill="rgb(0,0,255)" text-anchor="middle" transform="rotate(-90.000000 204.981757,251.750000)" >35</text> </g> 


<g> <line x1="380.000000" y1="169.714316" x2="357.500000" y2="169.714316" style="stroke:rgb(0,0,255);stroke-width:0.50" />
<polygon points="380.000000,169.714316 377.000000,168.714316 376.000000,169.714316 377.000000,170.714316" style="fill:rgb(0,0,255);stroke:rgb(0,0,255);stroke-width:0" />
<polygon points="357.500000,169.714316 360.500000,170.714316 361.500000,169.714316 360.500000,168.714316" style="fill:rgb(0,0,255);stroke:rgb(0,0,255);stroke-width:0" />
<text x="368.750000" y="167.714316" font-family="inherit" font-size="3.6" fill="rgb(0,0,255)" text-anchor="middle" transform="rotate(0.000000 368.750000,167.714316)" >15</text> </g> 


<g> <line x1="352.000180" y1="86.500000" x2="351.153075" y2="86.500000" style="stroke:rgb(0,0,255);stroke-width:0.50" />
<line x1="350.153075" y1="139.000000" x2="350.153075" y2="86.500000" style="stroke:rgb(0,0,255);stroke-width:0.50" />
<polygon points="350.153075,139.000000 351.153075,136.000000 350.153075,135.000000 349.153075,136.000000" style="fill:rgb(0,0,255);stroke:rgb(0,0,255);stroke-width:0" />
<polygon points="350.153075,86.500000 349.153075,89.500000 350.153075,90.500000 351.153075,89.500000" style="fill:rgb(0,0,255);stroke:rgb(0,0,255);stroke-width:0" />
<text x="348.153075" y="112.750000" font-family="inherit" font-size="3.6" fill="rgb(0,0,255)" text-anchor="middle" transform="rotate(-90.000000 348.153075,112.750000)" >35</text> </g> 


</svg>

